<svg xmlns="http://www.w3.org/2000/svg" viewBox="0 -0.5 16 16" shape-rendering="crispEdges">

<path stroke="#7394c4" d="M4 0h7"/>
<path stroke="#5cb7ff" d="M11 0h1M11 1h2"/>
<path stroke="rgba(0,0,0,0.12941176470588237)" d="M12 0h1M15 3h1M0 13h1M2 15h1M14 15h1"/>
<path stroke="rgba(0,0,0,0.0392156862745098)" d="M13 0h1M14 1h1M15 2h1M0 14h1M1 15h1M15 15h1"/>
<path stroke="rgba(0,0,0,0.00392156862745098)" d="M3 1h1"/>
<path stroke="#7090c0" d="M4 1h1"/>
<path stroke="#ffffff" d="M5 1h6M2 3h2M1 4h1M3 7h1M5 7h8"/>
<path stroke="rgba(0,0,0,0.2196078431372549)" d="M13 1h1M14 2h1M1 14h1M15 14h1"/>
<path stroke="#cc9933" d="M2 2h1M1 3h1M0 4h1M2 6h2M2 7h1M2 8h1"/>
<path stroke="#cb9832" d="M3 2h1M0 5h1M2 9h1"/>
<path stroke="#6c8cbc" d="M4 2h1"/>
<path stroke="#fafdff" d="M5 2h1M10 2h1"/>
<path stroke="#b4daff" d="M6 2h4M6 4h6"/>
<path stroke="#30a7fd" d="M11 2h3"/>
<path stroke="#6987b7" d="M4 3h1M13 3h1"/>
<path stroke="#f2f9ff" d="M5 3h6"/>
<path stroke="#cbe8ff" d="M11 3h2"/>
<path stroke="rgba(0,0,0,0.49411764705882355)" d="M14 3h1M15 7h1M15 13h1M2 14h1M14 14h1"/>
<path stroke="#ffff99" d="M2 4h2M3 8h1M3 9h1M3 10h1M3 11h1M3 12h1M13 12h1"/>
<path stroke="#6581b1" d="M4 4h1M13 4h1"/>
<path stroke="#eaf6ff" d="M5 4h1M12 4h1"/>
<path stroke="rgba(0,0,0,0.5803921568627451)" d="M14 4h1M15 8h1M15 12h1"/>
<path stroke="rgba(0,0,0,0.16470588235294117)" d="M15 4h1M3 15h11"/>
<path stroke="#fff791" d="M1 5h1"/>
<path stroke="#fff48e" d="M2 5h2"/>
<path stroke="#617dad" d="M4 5h1M13 5h1"/>
<path stroke="#e2f3ff" d="M5 5h8"/>
<path stroke="rgba(0,0,0,0.5843137254901961)" d="M14 5h1M15 9h1M15 10h1M15 11h1M3 14h11"/>
<path stroke="rgba(0,0,0,0.16862745098039217)" d="M15 5h1"/>
<path stroke="#c99630" d="M0 6h1"/>
<path stroke="#ffeb85" d="M1 6h1"/>
<path stroke="#5e79a9" d="M4 6h1M13 6h1"/>
<path stroke="#b0bab6" d="M5 6h8"/>
<path stroke="#b3801a" d="M14 6h1M2 13h1"/>
<path stroke="rgba(0,0,0,0.2549019607843137)" d="M15 6h1"/>
<path stroke="#c7942e" d="M0 7h1"/>
<path stroke="#ffe07a" d="M1 7h1"/>
<path stroke="#ddebf0" d="M4 7h1M13 7h1M5 8h1M12 8h1M5 9h8M5 10h8"/>
<path stroke="#a3700a" d="M14 7h1M8 13h1"/>
<path stroke="#c5922c" d="M0 8h1M2 10h1"/>
<path stroke="#ffd46e" d="M1 8h1M4 12h1"/>
<path stroke="#bbbfcd" d="M4 8h1M13 8h1M4 9h1M13 9h1M4 10h1M13 10h1M4 11h10"/>
<path stroke="#aedaff" d="M6 8h6"/>
<path stroke="#a06d07" d="M14 8h1M9 13h1"/>
<path stroke="#c28f29" d="M0 9h1"/>
<path stroke="#ffcc66" d="M1 9h1M1 10h1M1 11h1M1 12h1"/>
<path stroke="#9e6b05" d="M14 9h1M10 13h1"/>
<path stroke="#c08d27" d="M0 10h1"/>
<path stroke="#9c6903" d="M14 10h1M11 13h1"/>
<path stroke="#bd8a24" d="M0 11h1"/>
<path stroke="#bf8c26" d="M2 11h1"/>
<path stroke="#9a6701" d="M14 11h1M12 13h1"/>
<path stroke="#ba8721" d="M0 12h1"/>
<path stroke="#b8851f" d="M2 12h1"/>
<path stroke="#d0ac57" d="M5 12h7"/>
<path stroke="#d3a03a" d="M12 12h1"/>
<path stroke="#996600" d="M14 12h1M13 13h1"/>
<path stroke="#b5821c" d="M1 13h1"/>
<path stroke="#b07d17" d="M3 13h1"/>
<path stroke="#ae7b15" d="M4 13h1"/>
<path stroke="#ab7812" d="M5 13h1"/>
<path stroke="#a8750f" d="M6 13h1"/>
<path stroke="#a5720c" d="M7 13h1"/>
<path stroke="rgba(0,0,0,0.7098039215686275)" d="M14 13h1"/>
</svg>