<svg xmlns="http://www.w3.org/2000/svg" viewBox="0 -0.5 16 14" shape-rendering="crispEdges">

<path stroke="#cc9933" d="M2 0h1M1 1h1M0 2h1M2 6h1"/>
<path stroke="#cb9832" d="M3 0h1M0 3h1M2 7h1"/>
<path stroke="#c99630" d="M4 0h1M0 4h1"/>
<path stroke="#c7942e" d="M5 0h1M0 5h1"/>
<path stroke="rgba(0,0,0,0.12941176470588237)" d="M6 0h1M13 2h1M15 4h1M0 11h1M2 13h1M14 13h1"/>
<path stroke="rgba(0,0,0,0.0392156862745098)" d="M7 0h1M8 1h1M0 12h1M1 13h1M15 13h1"/>
<path stroke="#ffffff" d="M2 1h4M1 2h1M6 2h1M7 3h5M3 5h9M13 5h1"/>
<path stroke="#c28f29" d="M6 1h1M0 7h1"/>
<path stroke="rgba(0,0,0,0.2196078431372549)" d="M7 1h1M1 12h1M15 12h1"/>
<path stroke="rgba(0,0,0,0.00392156862745098)" d="M9 1h5M15 3h1"/>
<path stroke="#ffff99" d="M2 2h4M3 6h9M13 6h1M3 7h1M13 7h1M3 8h1M13 8h1M3 9h1M13 9h1M3 10h1M13 10h1"/>
<path stroke="#bd8a24" d="M7 2h1M0 9h1"/>
<path stroke="#ba8721" d="M8 2h1M0 10h1"/>
<path stroke="#b7841e" d="M9 2h1"/>
<path stroke="#b5821c" d="M10 2h1M1 11h1"/>
<path stroke="#b3801a" d="M11 2h1M13 4h2M2 11h1"/>
<path stroke="#b07d17" d="M12 2h1M3 11h1"/>
<path stroke="rgba(0,0,0,0.03529411764705882)" d="M14 2h1"/>
<path stroke="#fff791" d="M1 3h1M4 7h8"/>
<path stroke="#fff48e" d="M2 3h5"/>
<path stroke="#ae7b15" d="M12 3h1M4 11h1"/>
<path stroke="rgba(2,2,2,0.4588235294117647)" d="M13 3h1M15 5h1"/>
<path stroke="rgba(0,0,0,0.13333333333333333)" d="M14 3h1"/>
<path stroke="#ffeb85" d="M1 4h1M4 8h8"/>
<path stroke="#ffe680" d="M2 4h1M12 5h1"/>
<path stroke="#c5922c" d="M3 4h6M2 5h1M0 6h1M2 8h1"/>
<path stroke="#c08d27" d="M9 4h1M0 8h1"/>
<path stroke="#bc8923" d="M10 4h1"/>
<path stroke="#b8851f" d="M11 4h1M2 10h1"/>
<path stroke="#b4811b" d="M12 4h1"/>
<path stroke="#ffe07a" d="M1 5h1M4 9h8"/>
<path stroke="#a3700a" d="M14 5h1M8 11h1"/>
<path stroke="#ffd46e" d="M1 6h1M4 10h8"/>
<path stroke="#f8c55f" d="M12 6h1"/>
<path stroke="#a06d07" d="M14 6h1M9 11h1"/>
<path stroke="rgba(3,3,3,0.5803921568627451)" d="M15 6h1M15 10h1"/>
<path stroke="#ffcc66" d="M1 7h1M1 8h1M1 9h1M1 10h1"/>
<path stroke="#efbc56" d="M12 7h1"/>
<path stroke="#9e6b05" d="M14 7h1M10 11h1"/>
<path stroke="rgba(3,3,3,0.5843137254901961)" d="M15 7h1M15 8h1M15 9h1M3 12h11"/>
<path stroke="#e6b34d" d="M12 8h1"/>
<path stroke="#9c6903" d="M14 8h1M11 11h1"/>
<path stroke="#bf8c26" d="M2 9h1"/>
<path stroke="#dca943" d="M12 9h1"/>
<path stroke="#9a6701" d="M14 9h1M12 11h1"/>
<path stroke="#d3a03a" d="M12 10h1"/>
<path stroke="#996600" d="M14 10h1M13 11h1"/>
<path stroke="#ab7812" d="M5 11h1"/>
<path stroke="#a8750f" d="M6 11h1"/>
<path stroke="#a5720c" d="M7 11h1"/>
<path stroke="rgba(1,1,1,0.7098039215686275)" d="M14 11h1"/>
<path stroke="rgba(2,2,2,0.49411764705882355)" d="M15 11h1M2 12h1M14 12h1"/>
<path stroke="rgba(0,0,0,0.16470588235294117)" d="M3 13h11"/>
</svg>