<?xml version="1.0" encoding="UTF-8" ?>
<svg version="1.1" width="256" height="256" xmlns="http://www.w3.org/2000/svg" shape-rendering="crispEdges">
<rect x="48" y="16" width="16" height="16" fill="#000000" opacity="0.003922" />
<rect x="64" y="16" width="16" height="16" fill="#000000" opacity="0.003922" />
<rect x="80" y="16" width="16" height="16" fill="#000000" opacity="0.003922" />
<rect x="96" y="16" width="16" height="16" fill="#000000" opacity="0.003922" />
<rect x="32" y="32" width="16" height="16" fill="#CC9933" />
<rect x="48" y="32" width="16" height="16" fill="#CB9832" />
<rect x="64" y="32" width="16" height="16" fill="#C99630" />
<rect x="80" y="32" width="16" height="16" fill="#C7942E" />
<rect x="96" y="32" width="16" height="16" fill="#000000" opacity="0.129412" />
<rect x="112" y="32" width="16" height="16" fill="#000000" opacity="0.039216" />
<rect x="16" y="48" width="16" height="16" fill="#CC9933" />
<rect x="32" y="48" width="16" height="16" fill="#FFFFFF" />
<rect x="48" y="48" width="16" height="16" fill="#FFFFFF" />
<rect x="64" y="48" width="16" height="16" fill="#FFFFFF" />
<rect x="80" y="48" width="16" height="16" fill="#FFFFFF" />
<rect x="96" y="48" width="16" height="16" fill="#C28F29" />
<rect x="112" y="48" width="16" height="16" fill="#000000" opacity="0.219608" />
<rect x="128" y="48" width="16" height="16" fill="#000000" opacity="0.039216" />
<rect x="144" y="48" width="16" height="16" fill="#000000" opacity="0.003922" />
<rect x="160" y="48" width="16" height="16" fill="#000000" opacity="0.003922" />
<rect x="176" y="48" width="16" height="16" fill="#000000" opacity="0.003922" />
<rect x="192" y="48" width="16" height="16" fill="#000000" opacity="0.003922" />
<rect x="208" y="48" width="16" height="16" fill="#000000" opacity="0.003922" />
<rect x="0" y="64" width="16" height="16" fill="#CC9933" />
<rect x="16" y="64" width="16" height="16" fill="#FFFFFF" />
<rect x="32" y="64" width="16" height="16" fill="#FFFF99" />
<rect x="48" y="64" width="16" height="16" fill="#FFFF99" />
<rect x="64" y="64" width="16" height="16" fill="#FFFF99" />
<rect x="80" y="64" width="16" height="16" fill="#E60000" />
<rect x="96" y="64" width="16" height="16" fill="#E60000" />
<rect x="112" y="64" width="16" height="16" fill="#E60000" />
<rect x="128" y="64" width="16" height="16" fill="#FFFFFF" />
<rect x="144" y="64" width="16" height="16" fill="#E60000" />
<rect x="160" y="64" width="16" height="16" fill="#E60000" />
<rect x="176" y="64" width="16" height="16" fill="#E60000" />
<rect x="192" y="64" width="16" height="16" fill="#B07D17" />
<rect x="208" y="64" width="16" height="16" fill="#000000" opacity="0.129412" />
<rect x="224" y="64" width="16" height="16" fill="#000000" opacity="0.035294" />
<rect x="0" y="80" width="16" height="16" fill="#CB9832" />
<rect x="16" y="80" width="16" height="16" fill="#FFF791" />
<rect x="32" y="80" width="16" height="16" fill="#FFF48E" />
<rect x="48" y="80" width="16" height="16" fill="#FFF48E" />
<rect x="64" y="80" width="16" height="16" fill="#E60000" />
<rect x="80" y="80" width="16" height="16" fill="#FF0000" />
<rect x="96" y="80" width="16" height="16" fill="#FF0000" />
<rect x="112" y="80" width="16" height="16" fill="#FF0000" />
<rect x="128" y="80" width="16" height="16" fill="#E60000" />
<rect x="144" y="80" width="16" height="16" fill="#FF0000" />
<rect x="160" y="80" width="16" height="16" fill="#FF0000" />
<rect x="176" y="80" width="16" height="16" fill="#FF0000" />
<rect x="192" y="80" width="16" height="16" fill="#E60000" />
<rect x="208" y="80" width="16" height="16" fill="#030303" opacity="0.458824" />
<rect x="224" y="80" width="16" height="16" fill="#000000" opacity="0.133333" />
<rect x="240" y="80" width="16" height="16" fill="#000000" opacity="0.003922" />
<rect x="0" y="96" width="16" height="16" fill="#C99630" />
<rect x="16" y="96" width="16" height="16" fill="#FFEB85" />
<rect x="32" y="96" width="16" height="16" fill="#FFE680" />
<rect x="48" y="96" width="16" height="16" fill="#C5922C" />
<rect x="64" y="96" width="16" height="16" fill="#C5922C" />
<rect x="80" y="96" width="16" height="16" fill="#C5922C" />
<rect x="96" y="96" width="16" height="16" fill="#C5922C" />
<rect x="112" y="96" width="16" height="16" fill="#C5922C" />
<rect x="128" y="96" width="16" height="16" fill="#C5922C" />
<rect x="144" y="96" width="16" height="16" fill="#C08D27" />
<rect x="160" y="96" width="16" height="16" fill="#BC8923" />
<rect x="176" y="96" width="16" height="16" fill="#B8851F" />
<rect x="192" y="96" width="16" height="16" fill="#B4811B" />
<rect x="208" y="96" width="16" height="16" fill="#B3801A" />
<rect x="224" y="96" width="16" height="16" fill="#B3801A" />
<rect x="240" y="96" width="16" height="16" fill="#000000" opacity="0.129412" />
<rect x="0" y="112" width="16" height="16" fill="#C7942E" />
<rect x="16" y="112" width="16" height="16" fill="#FFE07A" />
<rect x="32" y="112" width="16" height="16" fill="#C5922C" />
<rect x="48" y="112" width="16" height="16" fill="#FFEFBA" />
<rect x="64" y="112" width="16" height="16" fill="#F27C7C" />
<rect x="80" y="112" width="16" height="16" fill="#FF7C7C" />
<rect x="96" y="112" width="16" height="16" fill="#FF7C7C" />
<rect x="112" y="112" width="16" height="16" fill="#FF7C7C" />
<rect x="128" y="112" width="16" height="16" fill="#FF7C7C" />
<rect x="144" y="112" width="16" height="16" fill="#FF7C7C" />
<rect x="160" y="112" width="16" height="16" fill="#FF7C7C" />
<rect x="176" y="112" width="16" height="16" fill="#FF7C7C" />
<rect x="192" y="112" width="16" height="16" fill="#F27C7C" />
<rect x="208" y="112" width="16" height="16" fill="#FFFFFF" />
<rect x="224" y="112" width="16" height="16" fill="#A3700A" />
<rect x="240" y="112" width="16" height="16" fill="#030303" opacity="0.458824" />
<rect x="0" y="128" width="16" height="16" fill="#C5922C" />
<rect x="16" y="128" width="16" height="16" fill="#FFD46E" />
<rect x="32" y="128" width="16" height="16" fill="#CC9933" />
<rect x="48" y="128" width="16" height="16" fill="#FFE882" />
<rect x="64" y="128" width="16" height="16" fill="#FFE882" />
<rect x="80" y="128" width="16" height="16" fill="#F27C4A" />
<rect x="96" y="128" width="16" height="16" fill="#FF7C4A" />
<rect x="112" y="128" width="16" height="16" fill="#FF7C4A" />
<rect x="128" y="128" width="16" height="16" fill="#FF7C4A" />
<rect x="144" y="128" width="16" height="16" fill="#FF7C4A" />
<rect x="160" y="128" width="16" height="16" fill="#FF7C4A" />
<rect x="176" y="128" width="16" height="16" fill="#F27C4A" />
<rect x="192" y="128" width="16" height="16" fill="#F8C55F" />
<rect x="208" y="128" width="16" height="16" fill="#FFE47E" />
<rect x="224" y="128" width="16" height="16" fill="#A06D07" />
<rect x="240" y="128" width="16" height="16" fill="#030303" opacity="0.580392" />
<rect x="0" y="144" width="16" height="16" fill="#C28F29" />
<rect x="16" y="144" width="16" height="16" fill="#FFCC66" />
<rect x="32" y="144" width="16" height="16" fill="#CB9832" />
<rect x="48" y="144" width="16" height="16" fill="#FFE47E" />
<rect x="64" y="144" width="16" height="16" fill="#FFE07A" />
<rect x="80" y="144" width="16" height="16" fill="#FFE07A" />
<rect x="96" y="144" width="16" height="16" fill="#F27846" />
<rect x="112" y="144" width="16" height="16" fill="#FF7846" />
<rect x="128" y="144" width="16" height="16" fill="#FF7846" />
<rect x="144" y="144" width="16" height="16" fill="#FF7846" />
<rect x="160" y="144" width="16" height="16" fill="#F27846" />
<rect x="176" y="144" width="16" height="16" fill="#FFE07A" />
<rect x="192" y="144" width="16" height="16" fill="#EFBC56" />
<rect x="208" y="144" width="16" height="16" fill="#FFE47E" />
<rect x="224" y="144" width="16" height="16" fill="#9E6B05" />
<rect x="240" y="144" width="16" height="16" fill="#030303" opacity="0.584314" />
<rect x="0" y="160" width="16" height="16" fill="#C08D27" />
<rect x="16" y="160" width="16" height="16" fill="#FFCC66" />
<rect x="32" y="160" width="16" height="16" fill="#C5922C" />
<rect x="48" y="160" width="16" height="16" fill="#FFE47E" />
<rect x="64" y="160" width="16" height="16" fill="#FFDB75" />
<rect x="80" y="160" width="16" height="16" fill="#FFDB75" />
<rect x="96" y="160" width="16" height="16" fill="#FFDB75" />
<rect x="112" y="160" width="16" height="16" fill="#F27240" />
<rect x="128" y="160" width="16" height="16" fill="#FF7240" />
<rect x="144" y="160" width="16" height="16" fill="#F27240" />
<rect x="160" y="160" width="16" height="16" fill="#FFDB75" />
<rect x="176" y="160" width="16" height="16" fill="#FFDB75" />
<rect x="192" y="160" width="16" height="16" fill="#E6B34D" />
<rect x="208" y="160" width="16" height="16" fill="#FFE47E" />
<rect x="224" y="160" width="16" height="16" fill="#9C6903" />
<rect x="240" y="160" width="16" height="16" fill="#030303" opacity="0.584314" />
<rect x="0" y="176" width="16" height="16" fill="#BD8A24" />
<rect x="16" y="176" width="16" height="16" fill="#FFCC66" />
<rect x="32" y="176" width="16" height="16" fill="#BF8C26" />
<rect x="48" y="176" width="16" height="16" fill="#FFE47E" />
<rect x="64" y="176" width="16" height="16" fill="#FFD56F" />
<rect x="80" y="176" width="16" height="16" fill="#FFD56F" />
<rect x="96" y="176" width="16" height="16" fill="#FFD56F" />
<rect x="112" y="176" width="16" height="16" fill="#FFD56F" />
<rect x="128" y="176" width="16" height="16" fill="#F26C3B" />
<rect x="144" y="176" width="16" height="16" fill="#FFD56F" />
<rect x="160" y="176" width="16" height="16" fill="#FFD56F" />
<rect x="176" y="176" width="16" height="16" fill="#FFD56F" />
<rect x="192" y="176" width="16" height="16" fill="#DCA943" />
<rect x="208" y="176" width="16" height="16" fill="#FFE47E" />
<rect x="224" y="176" width="16" height="16" fill="#9A6701" />
<rect x="240" y="176" width="16" height="16" fill="#030303" opacity="0.584314" />
<rect x="0" y="192" width="16" height="16" fill="#BA8721" />
<rect x="16" y="192" width="16" height="16" fill="#FFCC66" />
<rect x="32" y="192" width="16" height="16" fill="#B8851F" />
<rect x="48" y="192" width="16" height="16" fill="#FFE47E" />
<rect x="64" y="192" width="16" height="16" fill="#FFCF69" />
<rect x="80" y="192" width="16" height="16" fill="#FFCF69" />
<rect x="96" y="192" width="16" height="16" fill="#FFCF69" />
<rect x="112" y="192" width="16" height="16" fill="#FFCF69" />
<rect x="128" y="192" width="16" height="16" fill="#FFCF69" />
<rect x="144" y="192" width="16" height="16" fill="#FFCF69" />
<rect x="160" y="192" width="16" height="16" fill="#FFCF69" />
<rect x="176" y="192" width="16" height="16" fill="#FFCF69" />
<rect x="192" y="192" width="16" height="16" fill="#D3A03A" />
<rect x="208" y="192" width="16" height="16" fill="#FFE47E" />
<rect x="224" y="192" width="16" height="16" fill="#996600" />
<rect x="240" y="192" width="16" height="16" fill="#030303" opacity="0.580392" />
<rect x="0" y="208" width="16" height="16" fill="#000000" opacity="0.129412" />
<rect x="16" y="208" width="16" height="16" fill="#B5821C" />
<rect x="32" y="208" width="16" height="16" fill="#B3801A" />
<rect x="48" y="208" width="16" height="16" fill="#B07D17" />
<rect x="64" y="208" width="16" height="16" fill="#AE7B15" />
<rect x="80" y="208" width="16" height="16" fill="#AB7812" />
<rect x="96" y="208" width="16" height="16" fill="#A8750F" />
<rect x="112" y="208" width="16" height="16" fill="#A5720C" />
<rect x="128" y="208" width="16" height="16" fill="#A3700A" />
<rect x="144" y="208" width="16" height="16" fill="#A06D07" />
<rect x="160" y="208" width="16" height="16" fill="#9E6B05" />
<rect x="176" y="208" width="16" height="16" fill="#9C6903" />
<rect x="192" y="208" width="16" height="16" fill="#9A6701" />
<rect x="208" y="208" width="16" height="16" fill="#996600" />
<rect x="224" y="208" width="16" height="16" fill="#020202" opacity="0.709804" />
<rect x="240" y="208" width="16" height="16" fill="#030303" opacity="0.494118" />
<rect x="0" y="224" width="16" height="16" fill="#000000" opacity="0.039216" />
<rect x="16" y="224" width="16" height="16" fill="#000000" opacity="0.219608" />
<rect x="32" y="224" width="16" height="16" fill="#030303" opacity="0.494118" />
<rect x="48" y="224" width="16" height="16" fill="#030303" opacity="0.584314" />
<rect x="64" y="224" width="16" height="16" fill="#030303" opacity="0.584314" />
<rect x="80" y="224" width="16" height="16" fill="#030303" opacity="0.584314" />
<rect x="96" y="224" width="16" height="16" fill="#030303" opacity="0.584314" />
<rect x="112" y="224" width="16" height="16" fill="#030303" opacity="0.584314" />
<rect x="128" y="224" width="16" height="16" fill="#030303" opacity="0.584314" />
<rect x="144" y="224" width="16" height="16" fill="#030303" opacity="0.584314" />
<rect x="160" y="224" width="16" height="16" fill="#030303" opacity="0.584314" />
<rect x="176" y="224" width="16" height="16" fill="#030303" opacity="0.584314" />
<rect x="192" y="224" width="16" height="16" fill="#030303" opacity="0.584314" />
<rect x="208" y="224" width="16" height="16" fill="#030303" opacity="0.584314" />
<rect x="224" y="224" width="16" height="16" fill="#030303" opacity="0.494118" />
<rect x="240" y="224" width="16" height="16" fill="#000000" opacity="0.219608" />
<rect x="16" y="240" width="16" height="16" fill="#000000" opacity="0.039216" />
<rect x="32" y="240" width="16" height="16" fill="#000000" opacity="0.129412" />
<rect x="48" y="240" width="16" height="16" fill="#000000" opacity="0.164706" />
<rect x="64" y="240" width="16" height="16" fill="#000000" opacity="0.164706" />
<rect x="80" y="240" width="16" height="16" fill="#000000" opacity="0.164706" />
<rect x="96" y="240" width="16" height="16" fill="#000000" opacity="0.164706" />
<rect x="112" y="240" width="16" height="16" fill="#000000" opacity="0.164706" />
<rect x="128" y="240" width="16" height="16" fill="#000000" opacity="0.164706" />
<rect x="144" y="240" width="16" height="16" fill="#000000" opacity="0.164706" />
<rect x="160" y="240" width="16" height="16" fill="#000000" opacity="0.164706" />
<rect x="176" y="240" width="16" height="16" fill="#000000" opacity="0.164706" />
<rect x="192" y="240" width="16" height="16" fill="#000000" opacity="0.164706" />
<rect x="208" y="240" width="16" height="16" fill="#000000" opacity="0.164706" />
<rect x="224" y="240" width="16" height="16" fill="#000000" opacity="0.129412" />
<rect x="240" y="240" width="16" height="16" fill="#000000" opacity="0.039216" />
</svg>